#!OML:ASF H:\ManfredETheater\Project 1\Capture day 1\Session 1\subject.ASF
:FULLY-SPECIFIED
:DEGREES
167
root 12.5684 16.172 -31.6735 -193.73 45.7288 -185.737
lowerback 12.324 -2.17198 -3.22558
upperback 1.15468 -3.13073 1.60118
thorax -5.42492 -1.41036 4.0214
lowerneck -17.9259 -1.84173 -3.1608
upperneck 19.5735 -1.18294 -1.29259
head 9.13194 -0.865873 -0.0637804
rclavicle 4.97707e-014 1.03368e-014
rhumerus -57.0489 5.80434 -93.5106
rradius 104.535
rwrist -4.52389
rhand -18.5759 12.8956
rfingers 7.12502
rthumb 7.71451 -16.9437
lclavicle 4.97707e-014 1.03368e-014
lhumerus -43.2866 -6.14067 94.2952
lradius 106.372
lwrist 17.1754
lhand -21.69 -6.41424
lfingers 7.12502
lthumb 4.70815 23.5134
rfemur -37.9164 -11.9353 19.6415
rtibia 68.2806
rfoot -15.876 -14.3136
rtoes -33.2457
lfemur -22.6521 -3.64797 -23.2592
ltibia 70.6441
lfoot -23.2861 -3.31297
ltoes -12.0798
168
root 12.7987 16.2255 -31.8981 -193.605 45.357 -185.684
lowerback 12.0212 -2.31 -3.3534
upperback 1.07619 -3.32685 1.64723
thorax -5.31173 -1.50845 4.15886
lowerneck -17.9058 -1.75831 -3.07785
upperneck 19.6045 -1.06258 -1.40433
head 9.13681 -0.815047 -0.0998656
rclavicle 7.30534e-015 -6.36111e-015
rhumerus -57.6433 6.1376 -93.4209
rradius 105.208
rwrist -4.60068
rhand -18.3502 12.9819
rfingers 7.12502
rthumb 7.93239 -16.8493
lclavicle 7.30534e-015 -6.36111e-015
lhumerus -42.4037 -6.19874 94.3702
lradius 107.371
lwrist 17.8111
lhand -21.6683 -6.21472
lfingers 7.12502
lthumb 4.72905 23.7125
rfemur -38.2744 -11.5567 19.6779
rtibia 63.942
rfoot -14.5717 -13.0075
rtoes -34.4182
lfemur -21.5172 -3.92569 -23.3767
ltibia 70.5663
lfoot -23.0553 -3.76041
ltoes -12.3962
169
root 13.031 16.2789 -32.122 -193.477 45.0135 -185.558
lowerback 11.7249 -2.42655 -3.41079
upperback 1.01874 -3.48308 1.6967
thorax -5.18645 -1.5887 4.25197
lowerneck -17.8895 -1.6883 -3.00568
upperneck 19.6437 -0.962213 -1.4947
head 9.14577 -0.772051 -0.129545
rclavicle 1.12065e-014 -1.59028e-015
rhumerus -58.1747 6.34081 -93.2832
rradius 105.782
rwrist -4.6287
rhand -18.1856 13.0079
rfingers 7.12502
rthumb 8.09118 -16.8172
lclavicle 1.12065e-014 -1.59028e-015
lhumerus -41.5705 -6.39205 94.4396
lradius 108.235
lwrist 17.8175
lhand -21.6716 -6.0761
lfingers 7.12502
lthumb 4.72583 23.8512
rfemur -38.3122 -11.0946 19.659
rtibia 59.4625
rfoot -12.7165 -11.5524
rtoes -35.5257
lfemur -20.3131 -4.17368 -23.3967
ltibia 70.4324
lfoot -22.7633 -4.31811
ltoes -12.6546
170
root 13.2654 16.3298 -32.3453 -193.341 44.6987 -185.344
lowerback 11.4483 -2.52572 -3.3981
upperback 0.977409 -3.60587 1.75299
thorax -5.06153 -1.65372 4.30704
lowerneck -17.8623 -1.62987 -2.95171
upperneck 19.6911 -0.880068 -1.55284
head 9.15615 -0.735256 -0.1475
rclavicle 1.95803e-014 2.06736e-014
rhumerus -58.6609 6.43524 -93.1114
rradius 106.257
rwrist -4.64507
rhand -18.0863 12.9667
rfingers 7.12502
rthumb 8.18701 -16.8547
lclavicle 1.95803e-014 2.06736e-014
lhumerus -40.8004 -6.70737 94.4938
lradius 108.973
lwrist 17.3475
lhand -21.703 -6.00445
lfingers 7.12502
lthumb 4.69558 23.9235
rfemur -38.0539 -10.5452 19.6073
rtibia 54.93
rfoot -10.2877 -10.1007
rtoes -36.501
lfemur -19.0332 -4.39637 -23.3077
ltibia 70.2493
lfoot -22.4415 -4.96875
ltoes -12.8516
171
root 13.5022 16.3766 -32.5689 -193.211 44.3633 -185.069
lowerback 11.1792 -2.62023 -3.3251
upperback 0.946968 -3.71488 1.8031
thorax -4.93462 -1.7132 4.31865
lowerneck -17.8196 -1.58624 -2.91928
upperneck 19.753 -0.820415 -1.57465
head 9.16914 -0.706379 -0.15229
rclavicle 1.69464e-014 -6.36111e-015
rhumerus -59.1107 6.42385 -92.911
rradius 106.634
rwrist -4.68319
rhand -18.049 12.8571
rfingers 7.12502
rthumb 8.22303 -16.9629
lclavicle 1.69464e-014 -6.36111e-015
lhumerus -40.1004 -7.16069 94.5278
lradius 109.605
lwrist 16.6282
lhand -21.7692 -5.98717
lfingers 7.12502
lthumb 4.63167 23.9422
rfemur -37.5422 -9.94844 19.5001
rtibia 50.4474
rfoot -7.35779 -8.80277
rtoes -37.2755
lfemur -17.685 -4.64441 -23.1504
ltibia 70.024
lfoot -22.1041 -5.6917
ltoes -12.9733
172
root 13.7413 16.4172 -32.7933 -193.08 44.0102 -184.748
lowerback 10.9031 -2.71183 -3.20532
upperback 0.920855 -3.815 1.84352
thorax -4.80384 -1.76936 4.29102
lowerneck -17.776 -1.5498 -2.88637
upperneck 19.8442 -0.773114 -1.57976
head 9.19231 -0.68131 -0.153124
rclavicle -1.50082e-014 -1.82882e-014
rhumerus -59.5274 6.32557 -92.7013
rradius 106.916
rwrist -4.77912
rhand -18.0607 12.682
rfingers 7.12502
rthumb 8.21172 -17.1384
lclavicle -1.50082e-014 -1.82882e-014
lhumerus -39.4722 -7.73149 94.5248
lradius 110.152
lwrist 15.8357
lhand -21.8346 -6.01239
lfingers 7.12502
lthumb 4.56845 23.9183
rfemur -36.8418 -9.29272 19.3424
rtibia 46.1287
rfoot -4.09534 -7.7838
rtoes -37.7865
lfemur -16.2891 -4.91659 -22.94
ltibia 69.7669
lfoot -21.7681 -6.45756
ltoes -13.0362
173
root 13.9826 16.4503 -33.0186 -192.959 43.6187 -184.416
lowerback 10.6143 -2.80591 -3.06853
upperback 0.889177 -3.91809 1.86976
thorax -4.67398 -1.82739 4.238
lowerneck -17.7356 -1.51786 -2.85577
upperneck 19.9729 -0.731896 -1.57269
head 9.22916 -0.657794 -0.150299
rclavicle 8.12035e-014 -2.38542e-015
rhumerus -59.9212 6.16957 -92.4848
rradius 107.105
rwrist -4.92478
rhand -18.129 12.4452
rfingers 7.12502
rthumb 8.1458 -17.3778
lclavicle 8.12035e-014 -2.38542e-015
lhumerus -38.9153 -8.40485 94.4799
lradius 110.63
lwrist 15.1206
lhand -21.8841 -6.06275
lfingers 7.12502
lthumb 4.5207 23.869
rfemur -36.0612 -8.60251 19.123
rtibia 42.1931
rfoot -0.761014 -7.15023
rtoes -38.1457
lfemur -14.8779 -5.22825 -22.7158
ltibia 69.5324
lfoot -21.4733 -7.24012
ltoes -12.9904
174
root 14.2256 16.4754 -33.2449 -192.84 43.1403 -184.084
lowerback 10.3051 -2.91506 -2.92693
upperback 0.843264 -4.04266 1.88245
thorax -4.54737 -1.89616 4.16938
lowerneck -17.6954 -1.49325 -2.83569
upperneck 20.1342 -0.696431 -1.56197
head 9.27761 -0.637125 -0.145278
rclavicle -1.0963e-013 2.78299e-014
rhumerus -60.303 5.96813 -92.2524
rradius 107.216
rwrist -5.11629
rhand -18.2314 12.1632
rfingers 7.12502
rthumb 8.04698 -17.6636
lclavicle -1.0963e-013 2.78299e-014
lhumerus -38.426 -9.17082 94.3976
lradius 111.05
lwrist 14.5602
lhand -21.9007 -6.11254
lfingers 7.12502
lthumb 4.50468 23.8196
rfemur -35.2429 -7.93939 18.8443
rtibia 38.7077
rfoot 2.45566 -6.96085
rtoes -38.3171
lfemur -13.4728 -5.62123 -22.5015
ltibia 69.2957
lfoot -21.1791 -8.02909
ltoes -12.8572
175
root 14.4718 16.4654 -33.475 -192.735 42.5868 -183.8
lowerback 9.96724 -3.03166 -2.81478
upperback 0.777929 -4.18323 1.87448
thorax -4.4236 -1.97256 4.09569
lowerneck -17.6736 -1.47114 -2.81114
upperneck 20.3319 -0.659363 -1.56529
head 9.3422 -0.616863 -0.145804
rclavicle 4.69132e-014 -6.36111e-015
rhumerus -60.6672 5.73737 -92.012
rradius 107.249
rwrist -5.3362
rhand -18.3828 11.8665
rfingers 7.12502
rthumb 7.90091 -17.9659
lclavicle 4.69132e-014 -6.36111e-015
lhumerus -37.9869 -10.0044 94.2658
lradius 111.415
lwrist 14.1686
lhand -21.8546 -6.17602
lfingers 7.12502
lthumb 4.54915 23.7551
rfemur -34.5676 -7.33792 18.5099
rtibia 35.8674
rfoot 5.3913 -7.18821
rtoes -38.0244
lfemur -12.1732 -6.07251 -22.3374
ltibia 69.1843
lfoot -20.9123 -8.7957
ltoes -12.6447
176
root 14.7155 16.4709 -33.7021 -192.641 41.966 -183.583
lowerback 9.60965 -3.14908 -2.75112
upperback 0.681912 -4.33281 1.852
thorax -4.31815 -2.05234 4.03408
lowerneck -17.6623 -1.45461 -2.80758
upperneck 20.558 -0.620682 -1.57192
head 9.41897 -0.597652 -0.143865
rclavicle 4.46272e-014 -1.90833e-014
rhumerus -61.0256 5.49396 -91.7465
rradius 107.215
rwrist -5.55439
rhand -18.5584 11.5708
rfingers 7.12502
rthumb 7.73141 -18.2678
lclavicle 4.46272e-014 -1.90833e-014
lhumerus -37.5959 -10.8877 94.1049
lradius 111.716
lwrist 13.869
lhand -21.7594 -6.23416
lfingers 7.12502
lthumb 4.64107 23.695
rfemur -33.934 -6.88659 18.1624
rtibia 33.6753
rfoot 7.82763 -7.61999
rtoes -37.2684
lfemur -10.8884 -6.568 -22.2341
ltibia 69.0145
lfoot -20.5557 -9.54458
ltoes -12.2872
177
root 14.9579 16.4672 -33.9289 -192.577 41.2865 -183.46
lowerback 9.24054 -3.25967 -2.75341
upperback 0.5567 -4.48262 1.8127
thorax -4.23329 -2.13078 3.99124
lowerneck -17.665 -1.44485 -2.825
upperneck 20.8008 -0.580437 -1.5902
head 9.50463 -0.580567 -0.142343
rclavicle -9.52179e-014 7.15625e-015
rhumerus -61.386 5.25196 -91.4427
rradius 107.131
rwrist -5.75704
rhand -18.7361 11.2958
rfingers 7.12502
rthumb 7.55984 -18.5491
lclavicle -9.52179e-014 7.15625e-015
lhumerus -37.2411 -11.8061 93.923
lradius 111.947
lwrist 13.59
lhand -21.6234 -6.30634
lfingers 7.12502
lthumb 4.77242 23.6199
rfemur -33.4846 -6.6871 17.8354
rtibia 32.2858
rfoot 9.74726 -7.86458
rtoes -36.0282
lfemur -9.69748 -7.08475 -22.2199
ltibia 68.9125
lfoot -20.1235 -10.2462
ltoes -11.8096
178
root 15.1975 16.4541 -34.1541 -192.545 40.5756 -183.433
lowerback 8.88082 -3.35459 -2.81803
upperback 0.408111 -4.61989 1.7525
thorax -4.17594 -2.20134 3.96071
lowerneck -17.6833 -1.4415 -2.85831
upperneck 21.0457 -0.541653 -1.61532
head 9.59433 -0.566271 -0.140811
rclavicle -3.598e-014 1.19271e-014
rhumerus -61.7294 5.01136 -91.1079
rradius 107
rwrist -5.92409
rhand -18.9021 11.0528
rfingers 7.12502
rthumb 7.39967 -18.7978
lclavicle -3.598e-014 1.19271e-014
lhumerus -36.9096 -12.7442 93.7216
lradius 112.105
lwrist 13.2641
lhand -21.4642 -6.39108
lfingers 7.12502
lthumb 4.92618 23.5317
rfemur -33.1777 -6.77026 17.5713
rtibia 31.6029
rfoot 11.1864 -7.70518
rtoes -34.1913
lfemur -8.61113 -7.58591 -22.2876
ltibia 68.8643
lfoot -19.5486 -10.8873
ltoes -11.2217
179
root 15.4331 16.4316 -34.3769 -192.564 39.8516 -183.515
lowerback 8.56258 -3.41954 -2.9565
upperback 0.235831 -4.72633 1.67348
thorax -4.16455 -2.25391 3.95182
lowerneck -17.7016 -1.45084 -2.92325
upperneck 21.2743 -0.51289 -1.63547
head 9.67894 -0.558576 -0.133553
rclavicle 1.75924e-014 3.33958e-014
rhumerus -62.0547 4.76729 -90.7237
rradius 106.824
rwrist -6.04639
rhand -19.0431 10.8561
rfingers 7.12502
rthumb 7.26357 -18.9992
lclavicle 1.75924e-014 3.33958e-014
lhumerus -36.6036 -13.7124 93.5362
lradius 112.189
lwrist 12.868
lhand -21.3118 -6.48865
lfingers 7.12502
lthumb 5.07328 23.4306
rfemur -33.0493 -7.15831 17.3821
rtibia 31.715
rfoot 11.9907 -7.01771
rtoes -31.7669
lfemur -7.6479 -8.0404 -22.4466
ltibia 68.9377
lfoot -18.8305 -11.4476
ltoes -10.5685
